<mxfile host="Electron" modified="2023-12-28T19:06:39.677Z" agent="Mozilla/5.0 (Windows NT 10.0; Win64; x64) AppleWebKit/537.36 (KHTML, like Gecko) draw.io/22.1.11 Chrome/114.0.5735.289 Electron/25.9.8 Safari/537.36" etag="fhGTE0ubVETtQg_GzLnI" version="22.1.11" type="device">
  <diagram name="Pagina-1" id="-Q8Jg_wtptnFBlYMxJgu">
    <mxGraphModel dx="1434" dy="836" grid="1" gridSize="10" guides="1" tooltips="1" connect="1" arrows="1" fold="1" page="1" pageScale="1" pageWidth="827" pageHeight="1169" math="0" shadow="0">
      <root>
        <mxCell id="0" />
        <mxCell id="1" parent="0" />
        <mxCell id="DuditRNPVEZo2--kfrj1-18" value="Loop" style="shape=umlFrame;whiteSpace=wrap;html=1;pointerEvents=0;" vertex="1" parent="1">
          <mxGeometry x="30" y="590" width="560" height="180" as="geometry" />
        </mxCell>
        <mxCell id="DuditRNPVEZo2--kfrj1-3" value="Server" style="shape=umlLifeline;perimeter=lifelinePerimeter;whiteSpace=wrap;html=1;container=1;dropTarget=0;collapsible=0;recursiveResize=0;outlineConnect=0;portConstraint=eastwest;newEdgeStyle={&quot;curved&quot;:0,&quot;rounded&quot;:0};fontSize=16;" vertex="1" parent="1">
          <mxGeometry x="410" y="400" width="100" height="380" as="geometry" />
        </mxCell>
        <mxCell id="DuditRNPVEZo2--kfrj1-10" value="" style="html=1;points=[[0,0,0,0,5],[0,1,0,0,-5],[1,0,0,0,5],[1,1,0,0,-5]];perimeter=orthogonalPerimeter;outlineConnect=0;targetShapes=umlLifeline;portConstraint=eastwest;newEdgeStyle={&quot;curved&quot;:0,&quot;rounded&quot;:0};" vertex="1" parent="DuditRNPVEZo2--kfrj1-3">
          <mxGeometry x="45" y="80" width="10" height="40" as="geometry" />
        </mxCell>
        <mxCell id="DuditRNPVEZo2--kfrj1-20" value="" style="html=1;points=[[0,0,0,0,5],[0,1,0,0,-5],[1,0,0,0,5],[1,1,0,0,-5]];perimeter=orthogonalPerimeter;outlineConnect=0;targetShapes=umlLifeline;portConstraint=eastwest;newEdgeStyle={&quot;curved&quot;:0,&quot;rounded&quot;:0};" vertex="1" parent="DuditRNPVEZo2--kfrj1-3">
          <mxGeometry x="45" y="200" width="10" height="60" as="geometry" />
        </mxCell>
        <mxCell id="DuditRNPVEZo2--kfrj1-21" value="&lt;font style=&quot;font-size: 16px;&quot;&gt;Lettura &lt;br&gt;Redis&lt;/font&gt;" style="html=1;align=left;spacingLeft=2;endArrow=block;rounded=0;edgeStyle=orthogonalEdgeStyle;curved=0;rounded=0;" edge="1" target="DuditRNPVEZo2--kfrj1-20" parent="DuditRNPVEZo2--kfrj1-3" source="DuditRNPVEZo2--kfrj1-20">
          <mxGeometry relative="1" as="geometry">
            <mxPoint x="-80" y="230" as="sourcePoint" />
            <Array as="points">
              <mxPoint x="100" y="200" />
              <mxPoint x="100" y="240" />
            </Array>
          </mxGeometry>
        </mxCell>
        <mxCell id="DuditRNPVEZo2--kfrj1-4" value="Client" style="shape=umlLifeline;perimeter=lifelinePerimeter;whiteSpace=wrap;html=1;container=1;dropTarget=0;collapsible=0;recursiveResize=0;outlineConnect=0;portConstraint=eastwest;newEdgeStyle={&quot;curved&quot;:0,&quot;rounded&quot;:0};fontSize=16;" vertex="1" parent="1">
          <mxGeometry x="140" y="400" width="100" height="380" as="geometry" />
        </mxCell>
        <mxCell id="DuditRNPVEZo2--kfrj1-15" value="" style="html=1;points=[[0,0,0,0,5],[0,1,0,0,-5],[1,0,0,0,5],[1,1,0,0,-5]];perimeter=orthogonalPerimeter;outlineConnect=0;targetShapes=umlLifeline;portConstraint=eastwest;newEdgeStyle={&quot;curved&quot;:0,&quot;rounded&quot;:0};" vertex="1" parent="DuditRNPVEZo2--kfrj1-4">
          <mxGeometry x="45" y="120" width="10" height="50" as="geometry" />
        </mxCell>
        <mxCell id="DuditRNPVEZo2--kfrj1-16" value="&lt;font style=&quot;font-size: 16px;&quot;&gt;Crea&lt;br&gt;EventStream&lt;br&gt;&lt;/font&gt;" style="html=1;align=right;spacingLeft=2;endArrow=block;rounded=0;edgeStyle=orthogonalEdgeStyle;curved=0;rounded=0;" edge="1" target="DuditRNPVEZo2--kfrj1-15" parent="DuditRNPVEZo2--kfrj1-4">
          <mxGeometry x="-0.0556" relative="1" as="geometry">
            <mxPoint x="45" y="120" as="sourcePoint" />
            <Array as="points">
              <mxPoint x="45" y="130" />
              <mxPoint x="-10" y="130" />
              <mxPoint x="-10" y="170" />
            </Array>
            <mxPoint x="45" y="135" as="targetPoint" />
            <mxPoint as="offset" />
          </mxGeometry>
        </mxCell>
        <mxCell id="DuditRNPVEZo2--kfrj1-23" value="" style="html=1;points=[[0,0,0,0,5],[0,1,0,0,-5],[1,0,0,0,5],[1,1,0,0,-5]];perimeter=orthogonalPerimeter;outlineConnect=0;targetShapes=umlLifeline;portConstraint=eastwest;newEdgeStyle={&quot;curved&quot;:0,&quot;rounded&quot;:0};" vertex="1" parent="DuditRNPVEZo2--kfrj1-4">
          <mxGeometry x="45" y="260" width="10" height="100" as="geometry" />
        </mxCell>
        <mxCell id="DuditRNPVEZo2--kfrj1-24" value="&lt;font style=&quot;font-size: 16px;&quot;&gt;Aggiunta a&lt;br&gt;&lt;div style=&quot;text-align: right;&quot;&gt;dataset&lt;/div&gt;&lt;/font&gt;" style="html=1;align=left;spacingLeft=2;endArrow=block;rounded=0;edgeStyle=orthogonalEdgeStyle;curved=0;rounded=0;" edge="1" target="DuditRNPVEZo2--kfrj1-23" parent="DuditRNPVEZo2--kfrj1-4" source="DuditRNPVEZo2--kfrj1-23">
          <mxGeometry y="-90" relative="1" as="geometry">
            <mxPoint x="50" y="240" as="sourcePoint" />
            <Array as="points">
              <mxPoint x="20" y="260" />
              <mxPoint x="20" y="300" />
            </Array>
            <mxPoint as="offset" />
          </mxGeometry>
        </mxCell>
        <mxCell id="DuditRNPVEZo2--kfrj1-25" value="&lt;span style=&quot;font-size: 16px;&quot;&gt;Aggiornamento &lt;br&gt;&lt;div style=&quot;text-align: right;&quot;&gt;grafico&lt;/div&gt;&lt;/span&gt;" style="html=1;align=left;spacingLeft=2;endArrow=block;rounded=0;edgeStyle=orthogonalEdgeStyle;curved=0;rounded=0;" edge="1" parent="DuditRNPVEZo2--kfrj1-4">
          <mxGeometry y="-120" relative="1" as="geometry">
            <mxPoint x="45" y="310" as="sourcePoint" />
            <Array as="points">
              <mxPoint x="20" y="310" />
              <mxPoint x="20" y="350" />
            </Array>
            <mxPoint x="45" y="350" as="targetPoint" />
            <mxPoint as="offset" />
          </mxGeometry>
        </mxCell>
        <mxCell id="DuditRNPVEZo2--kfrj1-7" value="Effettua richiesta" style="html=1;verticalAlign=bottom;endArrow=block;curved=0;rounded=0;fontSize=16;" edge="1" parent="1" target="DuditRNPVEZo2--kfrj1-10">
          <mxGeometry width="80" relative="1" as="geometry">
            <mxPoint x="189.92857142857144" y="480" as="sourcePoint" />
            <mxPoint x="459.5" y="480" as="targetPoint" />
          </mxGeometry>
        </mxCell>
        <mxCell id="DuditRNPVEZo2--kfrj1-12" value="Ritorna tipo &quot;text/event-stream&quot;" style="html=1;verticalAlign=bottom;endArrow=block;curved=0;rounded=0;fontSize=16;" edge="1" parent="1" target="DuditRNPVEZo2--kfrj1-15">
          <mxGeometry width="80" relative="1" as="geometry">
            <mxPoint x="455" y="520" as="sourcePoint" />
            <mxPoint x="195" y="520" as="targetPoint" />
          </mxGeometry>
        </mxCell>
        <mxCell id="DuditRNPVEZo2--kfrj1-22" value="Invia dati via SSE" style="html=1;verticalAlign=bottom;endArrow=block;curved=0;rounded=0;fontSize=16;" edge="1" parent="1" source="DuditRNPVEZo2--kfrj1-20" target="DuditRNPVEZo2--kfrj1-23">
          <mxGeometry x="-0.0006" width="80" relative="1" as="geometry">
            <mxPoint x="460" y="660" as="sourcePoint" />
            <mxPoint x="200" y="660" as="targetPoint" />
            <mxPoint as="offset" />
          </mxGeometry>
        </mxCell>
      </root>
    </mxGraphModel>
  </diagram>
</mxfile>
